<?xml version="1.0" standalone="no"?>
<!DOCTYPE svg PUBLIC "-//W3C//DTD SVG 1.1//EN" "http://www.w3.org/Graphics/SVG/1.1/DTD/svg11.dtd">
<svg xmlns="http://www.w3.org/2000/svg">
<metadata>Copyright (C) 2015 by original authors @ fontello.com</metadata>
<defs>
<font id="klubduch-icons" horiz-adv-x="1000" >
<font-face font-family="klubduch-icons" font-weight="400" font-stretch="normal" units-per-em="1000" ascent="850" descent="-150" />
<missing-glyph horiz-adv-x="1000" />
<glyph glyph-name="check" unicode="&#xe800;" d="m777 792c-21-33-93-147-160-254-67-108-139-222-159-257l-39-59-50 83-50 84-156 0c-146 0-155-1-154-31 0-17 69-139 154-270l153-238 87 0 89 2 319 475c206 306 316 482 309 498-7 20-37 25-159 25l-148 0-36-58z" horiz-adv-x="1125" />
<glyph glyph-name="lock" unicode="&#xe801;" d="m305 834c-72-29-108-90-114-195l-7-101-51 0c-28 0-67-15-88-30-36-28-37-39-42-277-6-269-1-304 44-350 30-29 53-31 453-31l423 0 38 39c39 38 39 42 39 305 0 262 0 267-39 304-25 27-55 40-94 40l-54 0 0 87c0 100-30 161-94 200-35 19-83 25-214 23-92 0-183-6-200-14z m343-148c27-25 40-55 40-94l0-54-188 0-187 0 0 39c0 54 29 111 68 129 17 10 77 17 132 17 84 2 103-3 135-37z m208-292c27-27 27-374 0-400-26-27-686-27-712 0-27 26-27 373 0 400 26 26 686 26 712 0z m-454-72c-35-39-33-75 3-100 20-14 33-44 36-89 9-128 109-130 118-5 4 45 14 70 36 81 35 19 41 93 11 122-31 32-175 24-204-9z" horiz-adv-x="1000" />
<glyph glyph-name="user" unicode="&#xe802;" d="m398 828c-112-51-148-130-148-320l0-136-52-25c-78-38-153-106-176-164-27-64-30-288-3-314 26-27 936-27 962 0 27 26 24 250-3 314-23 56-98 126-175 164l-50 23-6 161c-5 172-20 210-109 277-54 39-177 50-240 20z m188-142c36-34 39-50 39-180 0-129-3-145-39-179-23-25-56-39-86-39-30 0-62 14-86 39-36 34-39 50-39 179 0 130 3 146 39 180 24 25 56 39 86 39 30 0 63-14 86-39z m-231-472c47-36 73-44 145-44 72 0 98 8 145 44 53 41 60 42 110 20 81-32 120-93 120-182l0-77-375 0-375 0 0 77c0 87 39 148 116 182 26 11 50 21 53 22 3 0 31-18 61-42z" horiz-adv-x="1000" />
<glyph glyph-name="location-circled" unicode="&#xe803;" d="m0 350q0 207 147 354t353 146 354-146 146-354-146-354-354-146-353 146-147 354z m250 82q0-82 35-129l215-283 215 283q35 47 35 129 0 104-73 176t-177 72-177-72-73-176z m145-1q0 44 31 74t74 31 74-31 31-74-31-74-74-30-74 30-31 74z" horiz-adv-x="1000" />
<glyph glyph-name="mail-circled" unicode="&#xe804;" d="m0 350q0 207 147 354t353 146 354-146 146-354-146-354-354-146-353 146-147 354z m244-193l512 0-166 174-90-51-90 51z m0 58l131 137-131 74 0-211z m0 256l256-144 256 144 0 72-512 0 0-72z m381-119l131-137 0 211z" horiz-adv-x="1000" />
<glyph glyph-name="phone-circled" unicode="&#xe805;" d="m0 350q0 207 147 354t353 146 354-146 146-354-146-354-354-146-353 146-147 354z m199 162q-4-51 41-142 71-133 229-248 107-71 193-73 29 0 47 16l84 86q10 10 8 23t-16 24l-123 72q-19 12-45-6l-35-37q-6-6-18-2-11 2-24 8t-25 16-21 16-21 21-20 17q-64 61-80 119 0 4 4 10l31 31q18 18 8 43l-68 129q-12 18-28 16-9 0-19-8l-84-86q-18-16-18-45z" horiz-adv-x="1000" />
<glyph glyph-name="calendar" unicode="&#xe806;" d="m74 839c-32-14-65-54-70-85-2-14-4-205-2-425 2-390 3-400 18-421 9-12 26-29 38-38 21-16 30-16 442-16 413 0 421 0 442 16 12 9 29 26 38 38 16 21 16 29 16 442 0 413 0 421-16 442-22 31-49 49-79 55l-26 5 0-75c0-71-2-78-19-95-18-19-25-19-106-19-81 0-87 0-105 19-18 17-20 25-20 94l0 74-125 0-125 0 0-74c0-69-2-77-19-94-18-19-25-19-106-19-81 0-87 0-105 19-18 17-20 25-20 94 0 82-2 84-51 63z m782-321l19-19 0-243 0-243-19-19-19-19-337 0-337 0-18 19-20 19 0 243 0 243 20 19 18 20 337 0 337 0 19-20z m-606-168l0-62 63 0 62 0 0 62 0 63-62 0-63 0 0-63z m188 0l0-62 62 0 63 0 0 62 0 63-63 0-62 0 0-63z m187 0l0-62 63 0 62 0 0 62 0 63-62 0-63 0 0-63z m-375-187l0-63 63 0 62 0 0 63 0 62-62 0-63 0 0-62z m188 0l0-63 62 0 63 0 0 63 0 62-63 0-62 0 0-62z m187 0l0-63 63 0 62 0 0 63 0 62-62 0-63 0 0-62z m-437 625l0-63 62 0 63 0 0 63 0 62-63 0-62 0 0-62z m500 0l0-63 62 0 63 0 0 63 0 62-63 0-62 0 0-62z" horiz-adv-x="1000" />
<glyph glyph-name="star" unicode="&#xe807;" d="m929 489q0-12-15-27l-203-197 48-279q1-4 1-12 0-11-6-19t-17-9q-10 0-22 7l-251 132-250-132q-13-7-23-7-11 0-17 9t-6 19q0 4 1 12l48 279-203 197q-14 15-14 27 0 21 31 26l280 40 126 254q11 23 27 23t28-23l125-254 280-40q32-5 32-26z" horiz-adv-x="928.6" />
<glyph glyph-name="star-empty" unicode="&#xe808;" d="m634 290l171 165-235 35-106 213-105-213-236-35 171-165-41-235 211 111 211-111z m295 199q0-12-15-27l-203-197 48-279q1-4 1-12 0-28-23-28-10 0-22 7l-251 132-250-132q-13-7-23-7-11 0-17 9t-6 19q0 4 1 12l48 279-203 197q-14 15-14 27 0 21 31 26l280 40 126 254q11 23 27 23t28-23l125-254 280-40q32-5 32-26z" horiz-adv-x="928.6" />
<glyph glyph-name="star-half" unicode="&#xe809;" d="m464 832v-747l-250-132q-13-7-23-7-11 0-17 9t-6 19q0 4 1 12l48 279-203 197q-14 15-14 27 0 21 31 26l280 40 126 254q11 23 27 23z" horiz-adv-x="500" />
<glyph glyph-name="star-half-alt" unicode="&#xe80a;" d="m662 316l143 139-198 29-37 6-17 34-89 179v-537l33-17 178-94-34 198-7 37z m252 146l-202-197 47-279q3-19-3-29t-19-11q-9 0-22 7l-251 132-250-132q-13-7-23-7-12 0-19 11t-3 29l48 279-203 197q-18 18-13 33t30 20l280 40 126 254q11 23 27 23 16 0 28-23l125-254 280-40q25-4 30-20t-13-33z" horiz-adv-x="928.6" />
<glyph glyph-name="ext-link" unicode="&#xe80b;" d="m99 823c-40-21-72-59-88-102-13-38-16-687-3-733 12-43 53-92 97-114l38-20 324-2c205-2 339 0 368 5 74 14 131 64 150 133 4 17 7 86 6 155l-3 124-60-45-60-44 0-80c0-72-1-80-18-100l-19-22-335 0-335 0-18 22-19 21 0 328c0 320 0 329 16 349l16 20 139 0 139 0 0 22c1 12 7 40 15 62l14 40-164 0c-158 0-165-1-200-19z m537-63c-11-15-16-32-16-62l0-42-33 0c-91 0-194-48-273-128-103-104-148-248-119-385l9-40 15 37c58 148 223 268 368 268l33 0 0-38c0-29 5-43 18-59 34-40 52-33 203 81 75 56 140 111 145 122 17 37 2 55-141 163-116 89-140 103-164 103-22 0-33-4-45-20z" horiz-adv-x="992" />
<glyph glyph-name="left" unicode="&#xe80c;" d="m0 350l586 391 0-211 414 0 0-360-414 0 0-211z" horiz-adv-x="1000" />
<glyph glyph-name="right" unicode="&#xe80d;" d="m0 170l0 360 414 0 0 211 586-391-586-391 0 211-414 0z" horiz-adv-x="1000" />
<glyph glyph-name="up" unicode="&#xe80e;" d="m0 264l391 586 390-586-211 0 0-414-359 0 0 414-211 0z" horiz-adv-x="781" />
<glyph glyph-name="down" unicode="&#xe80f;" d="m0 436l211 0 0 414 359 0 0-414 211 0-390-586z" horiz-adv-x="781" />
<glyph glyph-name="quote-right" unicode="&#xe810;" d="m18 685l335 0 0-334q0-140-98-238t-237-97l0 111q92 0 158 65t65 159l-223 0 0 334z m558 0l335 0 0-334q0-140-98-238t-237-97l0 111q92 0 158 65t65 159l-223 0 0 334z" horiz-adv-x="928" />
<glyph glyph-name="quote-left" unicode="&#xe811;" d="m911 16l-335 0 0 335q0 139 99 236t236 98l0-111q-93 0-158-66t-65-157l223 0 0-335z m-558 0l-335 0 0 335q0 139 98 236t237 98l0-111q-93 0-158-66t-65-157l223 0 0-335z" horiz-adv-x="928" />
<glyph glyph-name="phone" unicode="&#xe812;" d="m0 615q0 50 28 76l138 138q45 37 77-13l113-211q18-39-14-71l-51-52q-5-6-5-14 25-98 132-195l31-30t36-34 34-26 41-25 40-14q20-6 27 2l61 60q39 30 72 12l203-121q22-14 25-37t-13-39l-141-139q-27-27-74-27-140 4-318 121-258 185-375 406-72 151-67 233z" horiz-adv-x="988" />
<glyph glyph-name="mail" unicode="&#xe813;" d="m0-29l324 342 176-100 176 100 324-342-1000 0z m0 114l0 414 254-147z m0 503l0 141 1000 0 0-141-500-285z m746-236l254 147 0-414z" horiz-adv-x="1000" />
<glyph glyph-name="camera" unicode="&#xe814;" d="m544 831c-19-18-34-46-66-123l-9-22-196 0c-217 0-239-4-260-46-11-20-13-72-13-381l0-356 27-26 26-27 615 0 615 0 26 27 27 26 0 356c0 309-2 361-13 381-21 42-43 46-260 46l-196 0-9 22c-31 73-45 101-65 121-21 21-23 21-125 21-99 0-104-1-124-19z m237-251c100-39 175-118 204-216 49-158-22-321-172-395-57-28-61-29-145-29-84 0-88 1-145 29-112 55-179 155-185 276-10 171 96 308 268 350 32 8 141-1 175-15z m-197-78c-37-14-82-46-109-78-64-76-73-187-25-278 96-176 352-169 441 13 27 54 33 121 17 180-20 70-85 138-159 163-40 15-126 14-165 0z" horiz-adv-x="1336" />
<glyph glyph-name="pencil" unicode="&#xe815;" d="m738 802c-13-3-38-21-56-39l-34-34 128-127 128-128 29 32c33 37 44 60 44 99 0 39-15 61-84 130-73 71-100 84-155 67z m-374-357c-220-222-240-243-232-258 6-9 15-17 23-17 7 0 120 107 251 239l239 238-20 19-19 20-242-241z m79-86c-257-257-258-258-223-301 11-15 22-20 44-20 27 0 42 13 269 239l240 240-40 42c-23 22-43 41-45 41-3 0-113-109-245-241z m136-121c-197-197-236-240-234-256 2-13 8-20 22-21 17-2 59 37 256 235l237 237-22 21-22 21-237-237z m-523-244c-19-75-33-139-31-140 2-2 130 27 250 59l29 7-11 26c-9 21-16 26-45 31-56 10-97 52-101 106-2 19-7 28-25 37-13 6-25 11-27 11-4 0-21-61-39-137z" horiz-adv-x="1000" />
<glyph glyph-name="facebook-rect" unicode="&#xe816;" d="m1000 761v-824q0-36-26-62t-62-26h-824q-36 0-62 26t-26 62v824q0 36 26 62t62 26h824q36 0 62-26t26-62z m-187-160l20 118q-43 15-143 15-79 0-123-58-26-34-26-119v-78h-79v-115h79v-400h149v400h118l9 115h-127v90q0 42 59 42 31 0 64-10z" horiz-adv-x="1000" />
<glyph glyph-name="twitter-bird" unicode="&#xe817;" d="m1003 349q-41-46-114-46h-6q-37-152-177-244t-305-92q-121 0-225 53t-176 151q75-72 181-72 113 0 191 83-6-1-12-1l-36 8q-24 12-24 35 0 27 41 45-10-1-19-1-29 0-54 12-33 16-51 51 22 25 69 28-98 24-112 102 27 8 53 8h8q-37 20-62 52t-24 69l1 8q155-59 257-116 30-17 76-63 32 87 68 151t89 98q-1-16-15-31 33 32 78 38-3-23-53-41 7 2 26 10t33 11 25 4q15 0 15-11 0-8-16-16t-43-15-28-9q10 1 19 1 69 0 123-52 60-60 76-143 18-6 36-6 50 0 83 19-13-30-43-47t-67-19q34-15 83-15 16 0 31 3z" horiz-adv-x="1003" />
<glyph glyph-name="googleplus-rect" unicode="&#xe818;" d="m1000 761v-824q0-36-26-62t-62-26h-824q-36 0-62 26t-26 62v824q0 36 26 62t62 26h824q36 0 62-26t26-62z m-237-239h121v60h-121v122h-60v-122h-122v-60h122v-121h60v121z m-215 163q0 11-22 11-3 1-52 1h-72q-24 0-61-4t-59-11q-58-19-92-62t-35-102q0-70 44-113 43-42 111-42h9q0-24 2-35t5-11 8-5 8-15q-55 0-102-12t-86-48-38-91q0-77 62-114t143-38q92 0 160 46t67 133q0 38-19 73t-44 55-43 39-20 28q0 11 15 26t34 29 33 46 15 74q0 76-44 107 1 0 16 2t20 3 17 5 16 10 4 15z m-135-170q0-35-15-60t-49-25q-43 0-68 46t-26 91q0 35 16 60t48 25q43 0 69-45t25-92z m55-345q0-44-43-71t-90-27-85 24-39 68q0 48 41 72t92 24q46 0 85-23t39-67z" horiz-adv-x="1000" />
<glyph glyph-name="linkedin-rect" unicode="&#xe819;" d="m1000 761v-824q0-36-26-62t-62-26h-824q-36 0-62 26t-26 62v824q0 36 26 62t62 26h824q36 0 62-26t26-62z m-332-712h129v247q0 89-41 135t-107 46q-47 0-79-21t-49-47h-2l-6 59h-111q3-114 3-134v-285h128v241q0 21 4 33 20 49 66 49 65 0 65-91v-232z m-354 582q-19 18-49 18t-49-18-19-47 19-46 47-19q32 0 51 18 18 18 18 44 0 31-18 50z m-114-582h128v419h-128v-419z" horiz-adv-x="1000" />
<glyph glyph-name="skype" unicode="&#xe81a;" d="m1000 122q0-113-81-193t-196-80q-69 0-130 32-46-8-88-8-196 0-336 138t-141 333q0 42 10 94-38 64-38 138 0 113 82 193t195 80q81 0 147-42 38 7 81 7 129 0 239-62t174-171 64-237q0-56-11-101 29-58 29-121z m-217 102q0 50-22 87t-57 56-79 34-86 23-78 18-58 25-22 39q0 34 37 50t75 15q40 0 67-12t38-30 22-35 25-30 40-13q28 0 49 19t20 46-15 54q-30 55-96 80t-141 25q-46 0-89-9t-85-28-66-57-25-87q0-66 41-106t99-57 116-29 99-33 40-59q0-42-42-62t-90-21q-45 0-74 15t-41 36-23 43-26 36-42 15q-28 0-49-17t-21-45q0-42 31-85 72-104 249-104 50 0 97 11t89 34 68 63 25 95z" horiz-adv-x="1000" />
<glyph glyph-name="down-open" unicode="&#xe81b;" d="m939 399l-414-413q-10-11-25-11t-25 11l-414 413q-11 11-11 26t11 25l92 92q11 11 26 11t25-11l296-296 296 296q11 11 25 11t26-11l92-92q11-11 11-25t-11-26z" horiz-adv-x="1000" />
<glyph glyph-name="left-open" unicode="&#xe81c;" d="m653 682l-296-296 296-297q11-10 11-25t-11-25l-92-93q-11-10-25-10t-25 10l-414 415q-11 10-11 25t11 25l414 414q10 10 25 10t25-10l92-93q11-10 11-25t-11-25z" horiz-adv-x="714.3" />
<glyph glyph-name="right-open" unicode="&#xe81d;" d="m618 361l-414-415q-11-10-25-10t-26 10l-92 93q-11 11-11 25t11 25l296 297-296 296q-11 11-11 25t11 25l92 93q11 10 26 10t25-10l414-414q10-11 10-25t-10-25z" horiz-adv-x="714.3" />
<glyph glyph-name="up-open" unicode="&#xe81e;" d="m939 107l-92-92q-11-10-26-10t-25 10l-296 297-296-297q-11-10-25-10t-26 10l-92 92q-11 11-11 26t11 25l414 414q11 10 25 10t25-10l414-414q11-11 11-25t-11-26z" horiz-adv-x="1000" />
<glyph glyph-name="comment" unicode="&#xe81f;" d="m781 662l-625 0q-21 0-37-15t-15-36l0-365q0-21 15-37t37-16l157 0 0-8 8 8 460 0q22 0 37 16t16 37l0 365q0 21-16 36t-37 15z m0 105q65 0 111-46t46-110l0-365q0-65-46-111t-111-46l-416 0-156-156 0 156-53 0q-65 0-110 46t-46 111l0 365q0 65 46 110t110 46l625 0z" horiz-adv-x="938" />
<glyph glyph-name="facebook" unicode="&#xe820;" d="m535 843v-147h-87q-48 0-65-20t-17-60v-106h164l-22-165h-142v-424h-171v424h-142v165h142v122q0 104 58 161t155 57q82 0 127-7z" horiz-adv-x="571.4" />
<glyph glyph-name="info" unicode="&#xe821;" d="m167 849c-42-6-80-26-110-57-28-29-45-61-53-101-5-21-5-60 0-80 12-58 45-105 92-133 75-45 171-31 231 33 25 27 42 60 50 97 3 12 3 18 3 43 0 22 0 31-2 40-4 19-9 32-17 50-27 55-78 94-135 106-14 2-46 3-59 2z m45-58c11-5 18-15 18-27 0-18-13-30-33-30-15 0-36-8-50-21-17-15-28-38-29-60-1-16-3-22-10-28-6-6-16-10-23-8-12 2-21 12-23 24-1 8 1 31 5 44 11 43 44 81 84 97 23 10 50 13 61 9z m-180-353c0-4 15-121 31-261 17-141 32-259 32-263 7-31 40-57 81-63 50-6 100 22 110 62 1 6 64 526 63 528 0 1-2-1-5-3-20-16-52-33-78-42-27-9-41-11-76-10-27 0-33 0-46 3-39 8-80 27-106 49l-7 6 1-6z" horiz-adv-x="382" />
<glyph glyph-name="blog" unicode="&#xe822;" d="m97 845c-45-12-79-48-92-97l-4-15 0-290 0-290 4-15c13-50 48-85 93-97 13-3 22-3 238-3l226 0 124-93 124-93 1 92 1 93 43 1c34 0 44 1 52 4 44 14 76 49 88 96l4 15 0 290 0 290-4 15c-13 49-47 85-93 97-13 3-24 3-403 3-374 0-390 0-402-3z m736-124c15-5 29-20 35-34 3-10 4-16 6-59 2-64 0-399-2-411-5-20-18-37-36-45-9-5-12-5-46-6-46-2-533-2-581 0-35 1-37 1-47 6-14 6-26 19-32 33l-4 10 0 231 0 232 6 12c7 14 20 26 33 31 9 4 14 4 334 4l324 0 10-4z m-583-150l0-32 249 0 249 0 0 32 0 31-249 0-249 0 0-31z m0-125l0-32 249 0 249 0 0 32 0 31-249 0-249 0 0-31z m0-125l0-32 249 0 249 0 0 32 0 31-249 0-249 0 0-31z" horiz-adv-x="1000" />
<glyph glyph-name="twitter" unicode="&#xe823;" d="m904 622q-37-54-90-93 0-8 0-23 0-73-21-145t-64-139-103-117-144-82-181-30q-151 0-276 81 19-3 43-3 126 0 224 77-59 2-105 36t-64 89q19-2 34-2 24 0 48 6-63 13-104 62t-41 115v2q38-21 82-23-37 25-59 64t-22 86q0 49 25 91 68-83 164-133t208-55q-5 21-5 41 0 75 53 127t127 53q79 0 132-57 61 12 114 44-20-64-79-100 52 6 104 28z" horiz-adv-x="928.6" />
<glyph glyph-name="gplus" unicode="&#xe824;" d="m410 406q0-20 18-40t43-37 51-41 43-59 18-79q0-50-27-96-40-68-118-101t-166-32q-74 0-138 24t-95 76q-21 34-21 73 0 46 25 84t66 64q73 46 225 56-18 24-26 41t-9 41q0 20 12 48-26-3-38-3-83 0-139 54t-57 137q0 45 20 88t55 73q43 37 102 55t122 18h233l-77-49h-73q41-35 62-74t21-90q0-40-13-72t-33-52-39-36-33-34-14-37z m-81 53q21 0 43 10t37 24q30 32 30 89 0 32-10 69t-27 73-47 57-65 23q-24 0-46-11t-37-29q-26-33-26-89 0-26 5-55t18-57 29-52 42-37 54-15z m1-487q32 0 62 7t55 22 41 41 15 61q0 14-4 27t-8 24-15 23-16 19-22 20-20 16-23 16-21 15q-8 1-26 1-30 0-59-4t-60-14-54-25-38-42-15-59q0-39 19-69t51-46 67-25 71-8z m452 489h119v-60h-119v-122h-59v122h-118v60h118v121h59v-121z" horiz-adv-x="928.6" />
<glyph glyph-name="pin" unicode="&#xe825;" d="m274 849c-74-5-136-33-186-83-63-62-96-154-86-238 10-85 62-215 156-388 8-14 14-27 15-27 0 0-6-2-12-4-77-20-128-58-138-104-7-31 4-61 30-87 36-33 95-56 173-65 25-3 100-3 125 0 100 12 171 47 196 96 14 29 12 60-7 88-20 30-67 57-124 72l-12 3 4 8c103 187 159 324 168 413 3 35-3 80-15 117-36 106-128 183-236 197-14 2-41 3-51 2z m50-78c24-4 41-10 62-21 32-17 61-43 81-75 29-44 42-102 33-152-15-84-78-227-177-403-21-39-34-60-35-60-1 0-53 93-81 144-74 140-122 258-131 325-7 48 6 104 32 145 15 23 38 46 58 61 27 19 61 33 94 37 14 2 51 2 64-1z m-77-786c19-31 35-58 35-59 2-3-50 1-79 7-51 9-90 27-105 46-6 8-3 16 11 27 11 7 35 19 51 25 15 5 45 12 49 11 4 0 6-3 38-57z m141 54c40-9 80-28 91-44 5-7 4-11-3-19-25-27-91-47-165-51-15 0-17 0-17 1 1 2 64 106 69 114 2 3 4 3 25-1z m-117 668c-35-5-63-19-88-44-28-28-42-62-44-102-2-46 15-88 48-120 20-19 47-33 75-38 13-3 40-3 53 0 43 8 79 34 102 72 13 22 21 52 21 79 0 74-51 138-122 151-12 3-35 3-45 2z m39-69c36-10 63-44 63-84 0-39-26-74-63-84-13-3-31-3-43 0-52 15-78 74-54 123 18 37 58 55 97 45z" horiz-adv-x="577" />
<glyph glyph-name="arr-left" unicode="&#xe826;" d="m300 600c-164-137-299-249-299-250 0 0 134-113 298-250l299-249 0 192 1 191 500 0 500 0 0 116 0 116-500 0-500 0-1 192 0 191-298-249z" horiz-adv-x="1599" />
<glyph glyph-name="arr-right" unicode="&#xe827;" d="m1000 657l0-191-500 0-500 0 0-116 0-116 500 0 500 0 0-191 1-192 298 249c164 137 299 250 298 250 0 1-595 498-596 498-1 0-1-86-1-191z" horiz-adv-x="1599" />
<glyph glyph-name="carpool" unicode="&#xe828;" d="m536 847c-139-16-249-68-338-157-112-113-182-285-196-486-2-26-3-54-1-97l1-31 111 0c61 0 110 0 110-1 0-1-1-5-2-11-9-33-4-76 13-111 9-20 18-33 34-49 70-72 186-72 256 2 40 42 57 100 45 157-1 6-2 11-2 11 0 1 69 1 153 1l153 0-3-10c-1-6-2-19-3-29-3-58 23-114 71-151 15-11 43-24 63-30 14-3 19-4 42-4 29 0 39 2 63 10 83 30 132 120 112 205-1 3-1 7-1 8 0 1 47 1 119 0 96-1 120 0 121 1 2 6 8 76 8 103 3 107-23 207-70 272-19 25-47 51-77 70-41 25-106 49-158 58l-12 2-7 10c-13 19-36 46-56 66-71 74-156 129-249 161-21 7-51 16-61 18l-6 1 0-162 0-161 70 0 70-1-122-123-122-122-121 122-121 123 70 1 71 0 0 168 0 169-5 0c-2 0-13-1-23-3z" horiz-adv-x="1466" />
<glyph glyph-name="right-dir" unicode="&#xe829;" d="m321 350q0-14-10-25l-250-250q-11-11-25-11t-25 11-11 25v500q0 15 11 25t25 11 25-11l250-250q10-10 10-25z" horiz-adv-x="357.1" />
<glyph glyph-name="left-dir" unicode="&#xe82a;" d="m357 600v-500q0-14-10-25t-26-11-25 11l-250 250q-10 11-10 25t10 25l250 250q11 11 25 11t26-11 10-25z" horiz-adv-x="357.1" />
<glyph glyph-name="up-dir" unicode="&#xe82b;" d="m571 171q0-14-10-25t-25-10h-500q-15 0-25 10t-11 25 11 26l250 250q10 10 25 10t25-10l250-250q10-11 10-26z" horiz-adv-x="571.4" />
<glyph glyph-name="down-dir" unicode="&#xe82c;" d="m571 457q0-14-10-25l-250-250q-11-11-25-11t-25 11l-250 250q-11 11-11 25t11 25 25 11h500q14 0 25-11t10-25z" horiz-adv-x="571.4" />
<glyph glyph-name="clock" unicode="&#xe82d;" d="m1000 349q0-136-67-251t-182-182-251-67-251 67-182 182-67 251 67 251 182 182 251 67 251-67 182-182 67-251z m-117 0q0 158-112 271t-271 112q-126 0-226-74l2-2q-48-35-83-83l-2 2q-74-100-74-226 0-158 113-270t270-113q126 0 226 74l-2 2q48 35 83 83l2-2q74 100 74 226z m-203-200q0-25-17-42t-43-18q-26 0-42 18l-120 120q-18 18-18 62v320q0 25 18 43t42 17 43-17 17-43v-315l102-103q18-16 18-42z" horiz-adv-x="1000" />
<glyph glyph-name="down-open-big" unicode="&#xe82e;" d="m63 570l370-356 372 356q22 26 48 0 26-22 0-48l-396-392q-22-22-48 0l-396 392q-26 26 0 48 24 24 50 0z" horiz-adv-x="866" />
<glyph glyph-name="left-open-big" unicode="&#xe82f;" d="m452-20q26-26 0-48-26-26-48 0l-392 394q-24 24 0 50l392 394q22 26 48 0 26-22 0-48l-358-372z" horiz-adv-x="465" />
<glyph glyph-name="right-open-big" unicode="&#xe830;" d="m13-20l358 370-358 372q-26 26 0 48 26 26 48 0l392-394q24-26 0-50l-392-394q-22-26-48 0-26 22 0 48z" horiz-adv-x="465" />
<glyph glyph-name="up-open-big" unicode="&#xe831;" d="m804 130l-372 358-370-358q-26-22-50 0-24 24 0 50l396 390q26 26 48 0l396-390q24-26 0-50-26-22-48 0z" horiz-adv-x="864" />
<glyph glyph-name="play-circled2" unicode="&#xe832;" d="m0 350q0 207 147 354t353 146 354-146 146-354-146-354-354-146-353 146-147 354z m115 0q0-158 114-271t271-114 271 114 114 271-114 272-271 113-271-113-114-272z m260-250l0 500 375-250z" horiz-adv-x="1000" />
<glyph glyph-name="plus" unicode="&#xe833;" d="m911 462l0-223-335 0 0-336-223 0 0 336-335 0 0 223 335 0 0 335 223 0 0-335 335 0z" horiz-adv-x="928" />
<glyph glyph-name="info-circled" unicode="&#xe834;" d="m0 350q0 95 37 182t100 149 149 100 183 37q95 0 182-37t149-100 100-149 37-182q0-95-37-182t-100-150-149-100-182-37q-96 0-183 37t-149 100-100 150-37 182z m398 170q0-29 20-46t51-17q32 0 51 17t19 46-19 45-51 17q-32 0-51-17t-20-45z m5-402h132v299h-132v-299z" horiz-adv-x="937.5" />
<glyph glyph-name="doc" unicode="&#xe835;" d="m175 798c-17-4-28-15-33-30-2-6-2-11-2-417 0-369 0-412 2-418 3-14 14-25 29-30l6-3 320 0c214 0 321 0 325 1 13 2 26 11 32 22 6 10 6-13 6 326 0 207 0 310-1 313-1 6-5 13-9 18-1 1-53 50-116 107-101 93-114 104-120 108-4 1-10 4-13 4-3 1-79 1-213 1-178 0-208 0-213-2z m369-165c0-54 0-83 1-86 3-14 11-25 24-31 4-2 10-4 13-5 3-1 39-1 95-1l89 0 0-261 0-262-266 0-266 0 0 363 0 363 155 0 155 0 0-80z m124-8c14-12 26-24 28-25l3-3-30 0-30 0 0 27 0 27 2-2c1-1 14-12 27-24z m-348-212c-15-3-27-12-33-25-11-24 3-53 30-59 5-2 27-2 182-2 114 0 179 0 182 1 18 3 32 18 35 36 4 22-12 45-36 49-6 1-354 1-360 0z m-4-133c-22-7-36-27-32-49 3-19 18-33 38-36 9-1 347-1 357 0 9 2 18 6 25 13 7 6 9 11 12 20 4 18-5 38-22 47-11 6 1 6-194 6-150 0-179 0-184-1z m-2-134c-11-3-21-12-26-21-13-25 1-54 29-62 4-1 37-1 183-1 161 0 179 0 184 2 18 5 29 18 32 35 3 18-7 37-24 45l-7 4-183 0c-172 0-184 0-188-2z" horiz-adv-x="1000" />
<glyph glyph-name="remove" unicode="&#xe836;" d="m217 753l-24-48 11-18c48-83 107-180 161-264 13-20 23-38 24-38 0-1-4-6-10-14-71-79-153-192-219-303l-14-23 24-47 23-47 18 18c81 82 181 193 244 270 8 10 15 18 15 18 1 0 7-9 14-21 29-44 130-203 170-267 23-36 43-67 43-67 1-1 60 90 61 94 1 2-6 19-48 106-39 81-104 213-131 265-5 11-10 20-9 20 1 2 34 42 49 60 60 69 131 148 214 237 12 12 20 22 20 22 0 1-68 91-70 93-1 2-193-197-273-283l-9-10-12 19c-48 71-117 152-188 220-21 20-51 47-58 53l-3 2-23-47z" horiz-adv-x="1000" />
<glyph glyph-name="plus-light" unicode="&#xe837;" d="m500 575l0-225-225 0-225 0 0-11 0-11 225 0 225 0 0-214 0-214 11 0 11 0 0 214 0 214 214 0 214 0 0 11 0 11-214 0-214 0 0 225 0 225-11 0-11 0 0-225z" horiz-adv-x="1000" />
<glyph glyph-name="file-word" unicode="&#xe838;" d="m819 638q16-16 27-42t11-50v-642q0-23-15-38t-38-16h-750q-23 0-38 16t-16 38v892q0 23 16 38t38 16h500q22 0 49-11t42-27z m-248 136v-210h210q-5 16-12 23l-175 175q-6 7-23 12z m215-853v572h-232q-23 0-38 15t-16 38v233h-429v-858h715z m-656 500v-59h39l92-369h88l72 271q4 11 5 25 1 9 1 14h3l1-14q1-1 2-11t3-14l72-271h89l91 369h39v59h-167v-59h50l-55-245q-3-11-4-25l-1-12h-3l-1 12q-1 2-2 11t-3 14l-81 304h-63l-81-304q-1-5-2-13t-2-12l-2-12h-2l-2 12q-1 14-4 25l-55 245h50v59h-167z" horiz-adv-x="857.1" />
<glyph glyph-name="file-pdf" unicode="&#xe839;" d="m819 638q16-16 27-42t11-50v-642q0-23-15-38t-38-16h-750q-23 0-38 16t-16 38v892q0 23 16 38t38 16h500q22 0 49-11t42-27z m-248 136v-210h210q-5 16-12 23l-175 175q-6 7-23 12z m215-853v572h-232q-23 0-38 15t-16 38v233h-429v-858h715z m-287 331q18-14 47-31 33 4 65 4 82 0 99-27 9-13 1-29 0-1-1-1l-1-2v0q-3-21-39-21-27 0-65 11t-72 29q-123-13-219-46-85-146-135-146-8 0-15 4l-14 6q0 1-3 3-6 6-4 20 5 23 32 51t73 54q8 5 13-3 1-1 1-2 29 47 60 110 38 76 58 146-13 46-17 89t4 71q6 22 23 22h12q13 0 20-8 10-12 5-38-1-3-2-4 0-2 0-5v-17q-1-68-8-107 31-91 82-133z m-322-229q30 13 77 88-29-22-49-47t-28-41z m223 513q-9-23-2-73 1 4 4 24 0 2 4 24 1 3 3 5-1 0-1 1t0 1-1 1q0 12-7 20 0-1 0-1v-2z m-70-368q76 30 159 45-1 0-7 5t-9 8q-43 37-71 98-15-48-47-110-16-31-25-46z m361 8q-14 14-78 14 42-16 69-16 8 0 10 1 0 0-1 1z" horiz-adv-x="857.1" />
<glyph glyph-name="file-excel" unicode="&#xe83a;" d="m819 638q16-16 27-42t11-50v-642q0-23-15-38t-38-16h-750q-23 0-38 16t-16 38v892q0 23 16 38t38 16h500q22 0 49-11t42-27z m-248 136v-210h210q-5 16-12 23l-175 175q-6 7-23 12z m215-853v572h-232q-23 0-38 15t-16 38v233h-429v-858h715z m-547 131v-59h157v59h-42l58 90q3 4 5 9t5 8 2 2h1q0-2 2-6 2-2 3-4t3-4 4-5l60-90h-43v-59h163v59h-38l-107 152 108 158h38v59h-156v-59h41l-57-89q-2-4-6-9t-5-8l-1-1h-1q-1 2-3 5-3 6-9 13l-59 89h42v59h-162v-59h38l106-152-109-158h-38z" horiz-adv-x="857.1" />
<glyph glyph-name="file-powerpoint" unicode="&#xe83b;" d="m819 638q16-16 27-42t11-50v-642q0-23-15-38t-38-16h-750q-23 0-38 16t-16 38v892q0 23 16 38t38 16h500q22 0 49-11t42-27z m-248 136v-210h210q-5 16-12 23l-175 175q-6 7-23 12z m215-853v572h-232q-23 0-38 15t-16 38v233h-429v-858h715z m-554 131v-59h183v59h-52v93h76q43 0 66 9 37 12 59 48t23 82q0 45-21 78t-56 49q-27 10-72 10h-206v-59h52v-310h-52z m197 156h-66v150h67q29 0 46-10 31-19 31-64 0-50-34-67-18-9-44-9z" horiz-adv-x="857.1" />
<glyph glyph-name="file-image" unicode="&#xe83c;" d="m819 638q16-16 27-42t11-50v-642q0-23-15-38t-38-16h-750q-23 0-38 16t-16 38v892q0 23 16 38t38 16h500q22 0 49-11t42-27z m-248 136v-210h210q-5 16-12 23l-175 175q-6 7-23 12z m215-853v572h-232q-23 0-38 15t-16 38v233h-429v-858h715z m-72 250v-178h-571v107l107 107 71-71 215 214z m-464 108q-45 0-76 31t-31 76 31 76 76 31 76-31 31-76-31-76-76-31z" horiz-adv-x="857.1" />
<glyph glyph-name="file-archive" unicode="&#xe83d;" d="m357 636v71h-71v-71h71z m72-72v72h-72v-72h72z m-72-71v71h-71v-71h71z m72-72v72h-72v-72h72z m390 217q16-16 27-42t11-50v-642q0-23-15-38t-38-16h-750q-23 0-38 16t-16 38v892q0 23 16 38t38 16h500q22 0 49-11t42-27z m-248 136v-210h210q-5 16-12 23l-175 175q-6 7-23 12z m215-853v572h-232q-23 0-38 15t-16 38v233h-71v-72h-72v72h-286v-858h715z m-350 403l60-195q4-15 4-29 0-46-40-77t-103-30-102 30-41 77q0 14 5 29 12 35 67 221v71h71v-71h44q13 0 22-7t13-19z m-79-260q30 0 51 11t21 25-21 25-51 11-50-11-21-25 21-25 50-11z" horiz-adv-x="857.1" />
<glyph glyph-name="file-audio" unicode="&#xe83e;" d="m819 638q16-16 27-42t11-50v-642q0-23-15-38t-38-16h-750q-23 0-38 16t-16 38v892q0 23 16 38t38 16h500q22 0 49-11t42-27z m-248 136v-210h210q-5 16-12 23l-175 175q-6 7-23 12z m215-853v572h-232q-23 0-38 15t-16 38v233h-429v-858h715z m-440 455q11-5 11-17v-304q0-12-11-16-4-1-7-1-6 0-13 5l-92 93h-73q-8 0-13 5t-5 13v107q0 8 5 13t13 5h73l92 93q9 8 20 4z m233-385q17 0 28 14 72 88 72 202t-72 203q-9 11-24 13t-27-8q-11-9-13-24t8-26q56-69 56-158t-56-157q-9-12-8-27t13-24q10-8 23-8z m-118 83q15 0 26 11 49 52 49 122t-49 122q-10 11-25 12t-26-10-11-25 10-26q29-32 29-73t-29-73q-10-11-10-26t11-25q12-9 25-9z" horiz-adv-x="857.1" />
<glyph glyph-name="file-video" unicode="&#xe83f;" d="m819 638q16-16 27-42t11-50v-642q0-23-15-38t-38-16h-750q-23 0-38 16t-16 38v892q0 23 16 38t38 16h500q22 0 49-11t42-27z m-248 136v-210h210q-5 16-12 23l-175 175q-6 7-23 12z m215-853v572h-232q-23 0-38 15t-16 38v233h-429v-858h715z m-357 500q29 0 50-21t21-50v-214q0-29-21-50t-50-22h-215q-29 0-50 22t-21 50v214q0 29 21 50t50 21h215z m274-1q11-4 11-16v-322q0-12-11-17-4-1-7-1-7 0-12 5l-148 149v50l148 148q5 5 12 5 3 0 7-1z" horiz-adv-x="857.1" />
<glyph glyph-name="file-code" unicode="&#xe840;" d="m819 638q16-16 27-42t11-50v-642q0-23-15-38t-38-16h-750q-23 0-38 16t-16 38v892q0 23 16 38t38 16h500q22 0 49-11t42-27z m-248 136v-210h210q-5 16-12 23l-175 175q-6 7-23 12z m215-853v572h-232q-23 0-38 15t-16 38v233h-429v-858h715z m-518 500q4 7 12 7t13-3l28-21q7-5 7-12t-3-14l-102-135 102-136q4-6 3-13t-7-12l-28-21q-6-4-13-4t-12 7l-126 168q-8 11 0 21z m447-168q8-10 0-21l-126-168q-4-6-11-7t-14 4l-28 21q-6 5-7 12t3 13l102 136-102 135q-4 7-3 14t7 12l28 21q6 4 14 3t11-7z m-346-257q-7 1-11 7t-3 14l77 464q1 7 7 11t14 3l35-5q7-2 11-8t3-13l-77-464q-1-7-7-11t-13-3z" horiz-adv-x="857.1" />
<glyph glyph-name="diameter" unicode="&#xe841;" d="m467 799c-102-8-196-47-271-113-114-100-165-248-138-394 13-76 50-148 101-206l7-7-23-24c-77-79-75-77-73-79 11-10 85-76 86-76 0 0 20 19 43 43 23 24 45 47 50 52l9 9 12-7c47-27 98-45 153-54 28-5 43-6 77-6 34 0 49 1 78 6 187 31 334 174 366 354 7 42 7 88 1 130-7 51-24 101-50 147-6 12-24 39-31 48l-4 5 8 8c5 5 21 21 36 37l28 29-43 39c-24 21-44 39-45 39 0 0-9-9-19-20-11-11-26-26-34-35l-15-15-9 6c-62 45-139 74-219 83-17 1-65 2-81 1z m59-150c49-4 100-21 139-46l5-3-9-9c-4-5-94-98-199-207l-191-197-4 4c-2 2-7 9-12 15-55 73-69 168-38 254 26 71 83 131 156 163 47 21 101 30 153 26z m245-161c46-92 36-200-26-282-28-37-62-66-105-87-33-16-64-26-101-31-19-2-59-2-77 0-33 5-64 13-89 25l-7 3 13 13c7 8 87 91 179 185 91 94 172 179 181 187l15 16 5-7c2-3 8-13 12-22z" horiz-adv-x="1000" />
<glyph glyph-name="house" unicode="&#xe842;" d="m276 796c-6-1-11-3-15-6-3-2-37-35-76-74-39-38-82-80-95-92-22-22-30-32-33-38 0-2-2-8-3-14l-3-10 0-293c0-322 0-299 6-317 6-19 26-39 45-45 18-6-13-6 398-6 411 0 380 0 398 6 19 6 39 26 45 45 6 18 6-5 6 317l0 293-3 10c-3 13-4 15-8 22-4 6-205 189-215 196-5 4-8 5-17 7-11 3-15 3-28-1-6-2-10-3-14-7-4-2-42-40-86-83l-79-78-4 4c-18 16-172 155-176 158-6 5-21 9-29 9-3 0-9-1-14-3z m99-199c45-41 86-77 91-81 9-6 15-9 28-11 6-1 8-1 15 0 12 3 18 5 26 12 4 3 42 39 84 80 41 41 76 75 76 75 1 0 34-30 74-66l74-66 0-267 0-266-105 0-106 0 0 119c0 128 0 125-5 134-3 4-8 8-15 10-8 2-216 2-224 0-7-2-12-6-15-10-5-9-5-6-5-134l0-119-105 0-106 0 0 267 0 267 67 65c37 36 67 66 67 66 1 0 38-34 84-75z" horiz-adv-x="1000" />
<glyph glyph-name="food" unicode="&#xe843;" d="m799 756c-11-3-26-12-45-29-13-10-69-66-88-86-20-22-31-37-39-59-13-32-13-65 0-94 2-5 4-10 5-11 0-1-73-73-232-227-128-125-233-228-234-229-3-5-2-12 1-22 3-12 8-19 22-33 10-11 12-12 21-16 11-6 21-8 27-6 3 1 31 30 226 241 165 178 223 240 224 239 1 0 6-2 11-4 40-14 88-3 128 31 7 7 52 53 72 75 31 34 46 56 51 73 2 8 1 19-2 27-2 6-11 20-12 19-1 0-31-29-67-65-37-36-68-66-69-67-3-1-10-1-14 0-4 3-9 8-10 13-1 4 0 10 3 14 2 1 29 35 62 74l59 71-11 12c-6 6-12 11-12 11 0 0-32-28-71-62-39-33-71-62-73-63-2-1-8-2-11-2-4 1-11 7-13 11-1 4-1 9 0 13 1 2 30 34 65 71 35 38 64 69 64 69 0 1-10 7-16 9-7 3-14 3-22 2z m-675-32c-38-5-63-28-72-65-2-12-2-38 1-53 10-53 43-115 82-152 45-43 101-57 147-36 4 2 8 3 9 3 1 0 23-23 57-58 30-33 55-59 55-59 1 0 14 12 30 28l29 28-6 5c-3 3-29 29-59 58-29 28-53 52-53 52 6 11 12 26 14 39 2 12 1 36-2 48-7 32-24 60-51 86-40 39-97 68-146 76-10 1-28 1-35 0z m419-506c-17-17-30-32-30-33 0 0 49-54 110-120 124-134 113-123 126-121 7 1 19 6 26 12 9 6 25 25 29 33 7 14 9 26 5 32-1 2-234 229-236 230 0 0-14-15-30-33z" horiz-adv-x="1000" />
<glyph glyph-name="wallet" unicode="&#xe844;" d="m431 727c-149-28-275-52-280-53-25-4-52-17-70-33-13-11-24-28-28-44l-2-7 0-284 0-284 2-8c5-19 17-38 35-55 16-15 35-27 54-32l8-3 364 0c404 0 372-1 387 6 26 13 44 45 48 86 1 8 1 71 1 240l0 230-3 8c-8 29-26 44-60 48-5 1-27 1-51 1l-42 0 0 73c0 77 0 82-5 98-11 37-41 61-78 63-9 0-23-2-280-50z m277-18c5-1 12-9 15-16 1-4 2-9 2-77l0-73-283 0-283 0-13 3c-7 1-16 3-20 3l-6 1-1 14c0 13 0 15 2 19 4 8 21 18 40 24 8 2 535 103 541 103 1 0 3 0 6-1z m173-308l0-75-381 0-380 0-1 70c0 65 0 71 2 72 2 3 13 6 22 7 4 0 172 1 373 1l365 0 0-75z m0-256c0-72 0-119-1-126-1-13-3-21-6-25l-2-3-356 0-356 0-7 4c-6 2-10 6-17 13-6 6-12 13-13 16l-3 6-1 113c0 62 0 114 1 115 0 1 74 1 380 1l381 0 0-114z" horiz-adv-x="1000" />
<glyph glyph-name="play" unicode="&#xe845;" d="m460 799c-148-14-277-97-351-226-29-50-48-108-55-165-6-44-5-91 3-135 11-65 39-133 79-187 72-100 181-165 302-182 25-3 44-4 72-4 28 1 43 2 68 7 80 13 157 50 219 105 45 39 81 86 107 139 26 52 40 105 45 163 2 21 1 73-2 93-16 119-74 222-167 296-67 54-150 87-237 95-18 2-66 2-83 1z m90-66c102-14 189-63 254-144 8-11 26-37 33-50 24-42 39-89 46-139 3-20 4-58 2-78-6-80-34-151-83-213-13-15-45-48-59-59-45-36-93-60-146-74-33-8-59-11-97-11-37 0-61 2-95 11-109 27-202 103-251 205-21 42-33 83-38 133-2 17-2 58 0 77 10 87 47 165 107 227 66 69 149 108 245 117 17 2 65 0 82-2z m-120-391l0-293 6 6c50 53 271 286 271 287 0 0-60 64-132 141-73 76-135 142-139 146l-6 7 0-294z" horiz-adv-x="1000" />
<glyph glyph-name="download" unicode="&#xe846;" d="m487 798c-7-2-9-3-16-8-6-5-12-13-15-22l-2-5-1-271 0-271-44 46c-79 80-75 77-81 80-19 9-41 6-56-9-10-10-15-26-13-41 2-13 6-20 23-37 8-9 53-55 101-104 47-49 88-90 90-92 10-7 25-11 37-8 11 3 17 6 31 21 58 59 190 196 193 200 13 18 10 45-6 62-10 10-22 14-36 13-10-1-18-4-25-9-2-2-30-30-61-62-31-32-57-59-58-59-1 0-1 94-1 269 0 265 0 269-2 275-5 16-17 28-33 33-7 2-18 1-25-1z m-297-806c-24-8-38-31-33-55 4-17 15-30 31-35l6-2 306 0c297 0 306 0 312 2 20 6 33 25 32 48-1 18-13 34-29 40l-5 2-308 1c-248 0-309 0-312-1z" horiz-adv-x="1000" />
<glyph glyph-name="arr-down" unicode="&#xe847;" d="m73 700c-14-4-23-15-23-30 0-13-18 5 222-222 120-113 220-208 223-210l5-5 214 202c117 111 218 207 223 212 9 9 10 10 12 16 7 26-23 47-47 33-3-1-94-87-203-190l-199-188-3 2c-2 2-91 86-199 188-108 103-198 187-200 188-4 2-13 5-17 5-2 0-6-1-8-1z m-2-233c-20-8-28-30-15-46 4-6 442-419 444-419 0 0 100 94 222 209 247 233 228 213 228 228 0 8-3 14-9 20-7 6-12 8-22 9-8 0-10-1-15-3-4-2-42-37-205-191l-199-189-5 5c-3 3-93 87-200 188-143 136-196 185-199 187-7 3-19 4-25 2z" horiz-adv-x="1000" />
<glyph glyph-name="arr-up" unicode="&#xe848;" d="m278 490c-122-115-222-210-224-212-7-12-5-28 5-37 7-7 11-8 22-8 8 0 10 0 15 2 3 2 60 55 199 187 107 101 197 185 200 188l5 5 199-189c163-154 201-189 205-191 5-2 7-2 15-2 10 0 15 2 22 8 6 6 9 12 9 21 0 14 19-6-228 227-122 115-222 210-222 210-1 0-101-94-222-209z m-1-233c-245-232-227-214-227-227 0-12 6-22 16-27 8-4 15-5 23-3 3 1 7 3 9 4 2 1 92 85 200 188 108 102 197 187 199 188l3 2 199-188c109-103 200-189 203-190 16-10 38-3 45 14 5 9 3 21-3 29-2 2-101 95-219 207-119 113-218 206-221 209l-4 4-223-210z" horiz-adv-x="1000" />
</font>
</defs>
</svg>
